<mxfile host="app.diagrams.net" modified="2020-12-16T20:33:10.359Z" agent="5.0 (Macintosh; Intel Mac OS X 10_14_6) AppleWebKit/537.36 (KHTML, like Gecko) Chrome/87.0.4280.88 Safari/537.36" etag="i6AVPtM2Uh_nxQSMggS8" version="13.10.0" type="github">
  <diagram id="zhd-Uvh-itd-zUCHIrJH" name="Page-1">
    <mxGraphModel dx="1426" dy="1962" grid="1" gridSize="10" guides="1" tooltips="1" connect="1" arrows="1" fold="1" page="1" pageScale="1" pageWidth="827" pageHeight="1169" math="0" shadow="0">
      <root>
        <mxCell id="0" />
        <mxCell id="1" parent="0" />
        <mxCell id="zPzuGnTjDfx3dbXrWhTj-70" value="LPE functionalities sub-experiment" style="rounded=0;whiteSpace=wrap;html=1;strokeWidth=1;verticalAlign=top;fillColor=#ffe6cc;strokeColor=#d79b00;" parent="1" vertex="1">
          <mxGeometry x="230" y="-450" width="190" height="450" as="geometry" />
        </mxCell>
        <mxCell id="zPzuGnTjDfx3dbXrWhTj-93" style="edgeStyle=none;rounded=0;orthogonalLoop=1;jettySize=auto;html=1;exitX=1;exitY=0.5;exitDx=0;exitDy=0;entryX=0;entryY=0.5;entryDx=0;entryDy=0;fontColor=#B3B3B3;" parent="1" source="zPzuGnTjDfx3dbXrWhTj-4" target="zPzuGnTjDfx3dbXrWhTj-59" edge="1">
          <mxGeometry relative="1" as="geometry" />
        </mxCell>
        <mxCell id="zPzuGnTjDfx3dbXrWhTj-4" value="Include commitment question" style="rounded=1;whiteSpace=wrap;html=1;strokeWidth=1;fillColor=#f5f5f5;strokeColor=#666666;fontColor=#333333;" parent="1" vertex="1">
          <mxGeometry x="260" y="-250" width="126.25" height="60" as="geometry" />
        </mxCell>
        <mxCell id="zPzuGnTjDfx3dbXrWhTj-96" style="edgeStyle=none;rounded=0;orthogonalLoop=1;jettySize=auto;html=1;exitX=1;exitY=0.5;exitDx=0;exitDy=0;entryX=0;entryY=0.5;entryDx=0;entryDy=0;fontColor=#B3B3B3;" parent="1" source="zPzuGnTjDfx3dbXrWhTj-7" target="zPzuGnTjDfx3dbXrWhTj-50" edge="1">
          <mxGeometry relative="1" as="geometry" />
        </mxCell>
        <mxCell id="zPzuGnTjDfx3dbXrWhTj-7" value="Include reason for recommendation" style="rounded=1;whiteSpace=wrap;html=1;fillColor=#f5f5f5;strokeWidth=1;strokeColor=#666666;fontColor=#333333;" parent="1" vertex="1">
          <mxGeometry x="259.9949999999999" y="-172" width="130" height="70" as="geometry" />
        </mxCell>
        <mxCell id="zPzuGnTjDfx3dbXrWhTj-87" style="edgeStyle=orthogonalEdgeStyle;rounded=0;orthogonalLoop=1;jettySize=auto;html=1;exitX=1;exitY=0.5;exitDx=0;exitDy=0;entryX=0;entryY=0.5;entryDx=0;entryDy=0;fontColor=#B3B3B3;" parent="1" source="zPzuGnTjDfx3dbXrWhTj-9" target="zPzuGnTjDfx3dbXrWhTj-62" edge="1">
          <mxGeometry relative="1" as="geometry" />
        </mxCell>
        <mxCell id="zPzuGnTjDfx3dbXrWhTj-9" value="Too few recommended modules" style="rounded=1;whiteSpace=wrap;html=1;fillColor=#f5f5f5;strokeWidth=1;strokeColor=#666666;fontColor=#333333;" parent="1" vertex="1">
          <mxGeometry x="259.9949999999999" y="-420" width="130" height="70" as="geometry" />
        </mxCell>
        <mxCell id="zPzuGnTjDfx3dbXrWhTj-97" style="edgeStyle=none;rounded=0;orthogonalLoop=1;jettySize=auto;html=1;exitX=1;exitY=0.5;exitDx=0;exitDy=0;fontColor=#B3B3B3;" parent="1" source="zPzuGnTjDfx3dbXrWhTj-21" target="zPzuGnTjDfx3dbXrWhTj-51" edge="1">
          <mxGeometry relative="1" as="geometry" />
        </mxCell>
        <mxCell id="zPzuGnTjDfx3dbXrWhTj-21" value="Include link to learning report" style="rounded=1;whiteSpace=wrap;html=1;fillColor=#f5f5f5;strokeWidth=1;strokeColor=#666666;fontColor=#333333;" parent="1" vertex="1">
          <mxGeometry x="259.995" y="-90" width="130" height="70" as="geometry" />
        </mxCell>
        <mxCell id="zPzuGnTjDfx3dbXrWhTj-92" style="rounded=0;orthogonalLoop=1;jettySize=auto;html=1;exitX=1;exitY=0.5;exitDx=0;exitDy=0;entryX=0;entryY=0.5;entryDx=0;entryDy=0;fontColor=#B3B3B3;" parent="1" source="zPzuGnTjDfx3dbXrWhTj-46" target="zPzuGnTjDfx3dbXrWhTj-61" edge="1">
          <mxGeometry relative="1" as="geometry" />
        </mxCell>
        <mxCell id="zPzuGnTjDfx3dbXrWhTj-46" value="Too many recommended modules" style="rounded=1;whiteSpace=wrap;html=1;fillColor=#f5f5f5;strokeWidth=1;strokeColor=#666666;fontColor=#333333;" parent="1" vertex="1">
          <mxGeometry x="259.995" y="-337" width="130" height="70" as="geometry" />
        </mxCell>
        <mxCell id="zPzuGnTjDfx3dbXrWhTj-101" style="edgeStyle=orthogonalEdgeStyle;curved=1;rounded=0;orthogonalLoop=1;jettySize=auto;html=1;exitX=1;exitY=0.5;exitDx=0;exitDy=0;entryX=0;entryY=0.75;entryDx=0;entryDy=0;fontColor=#B3B3B3;" parent="1" source="zPzuGnTjDfx3dbXrWhTj-51" target="zPzuGnTjDfx3dbXrWhTj-74" edge="1">
          <mxGeometry relative="1" as="geometry" />
        </mxCell>
        <mxCell id="zPzuGnTjDfx3dbXrWhTj-51" value="Verify recommendation accuracy by reading report" style="rounded=1;whiteSpace=wrap;html=1;dashed=1;strokeWidth=2;strokeColor=#6666FF;" parent="1" vertex="1">
          <mxGeometry x="469.99" y="-85" width="120" height="60" as="geometry" />
        </mxCell>
        <mxCell id="zPzuGnTjDfx3dbXrWhTj-53" value="" style="group" parent="1" vertex="1" connectable="0">
          <mxGeometry x="1029.99" y="-50" width="80" height="60" as="geometry" />
        </mxCell>
        <mxCell id="zPzuGnTjDfx3dbXrWhTj-27" value="" style="rounded=1;whiteSpace=wrap;html=1;dashed=1;strokeWidth=2;strokeColor=#6666FF;" parent="zPzuGnTjDfx3dbXrWhTj-53" vertex="1">
          <mxGeometry x="10" width="60" height="25.71428571428571" as="geometry" />
        </mxCell>
        <mxCell id="zPzuGnTjDfx3dbXrWhTj-52" value="Measurable within our system" style="text;html=1;strokeColor=none;fillColor=none;align=center;verticalAlign=middle;whiteSpace=wrap;rounded=0;dashed=1;" parent="zPzuGnTjDfx3dbXrWhTj-53" vertex="1">
          <mxGeometry y="42.857142857142854" width="80" height="17.142857142857142" as="geometry" />
        </mxCell>
        <mxCell id="zPzuGnTjDfx3dbXrWhTj-107" style="edgeStyle=orthogonalEdgeStyle;curved=1;rounded=0;orthogonalLoop=1;jettySize=auto;html=1;exitX=1;exitY=0.5;exitDx=0;exitDy=0;entryX=0;entryY=0.5;entryDx=0;entryDy=0;fontColor=#B3B3B3;" parent="1" source="zPzuGnTjDfx3dbXrWhTj-58" target="zPzuGnTjDfx3dbXrWhTj-86" edge="1">
          <mxGeometry relative="1" as="geometry" />
        </mxCell>
        <mxCell id="zPzuGnTjDfx3dbXrWhTj-58" value="&lt;b&gt;&lt;font color=&quot;#67ab9f&quot;&gt;Check YES&lt;/font&gt; &lt;/b&gt;for &quot;useful for learning?&quot; question" style="rounded=1;whiteSpace=wrap;html=1;dashed=1;strokeWidth=2;strokeColor=#6666FF;" parent="1" vertex="1">
          <mxGeometry x="819.99" y="-130" width="120" height="60" as="geometry" />
        </mxCell>
        <mxCell id="zPzuGnTjDfx3dbXrWhTj-94" style="edgeStyle=none;rounded=0;orthogonalLoop=1;jettySize=auto;html=1;exitX=1;exitY=0.5;exitDx=0;exitDy=0;entryX=0;entryY=0.5;entryDx=0;entryDy=0;fontColor=#B3B3B3;" parent="1" source="zPzuGnTjDfx3dbXrWhTj-59" target="zPzuGnTjDfx3dbXrWhTj-73" edge="1">
          <mxGeometry relative="1" as="geometry" />
        </mxCell>
        <mxCell id="zPzuGnTjDfx3dbXrWhTj-59" value="Makes commitment by checking yes for &quot;will you commit?&quot; question" style="rounded=1;whiteSpace=wrap;html=1;dashed=1;strokeWidth=2;strokeColor=#6666FF;fillColor=none;" parent="1" vertex="1">
          <mxGeometry x="469.99" y="-250" width="120" height="60" as="geometry" />
        </mxCell>
        <mxCell id="zPzuGnTjDfx3dbXrWhTj-89" style="edgeStyle=orthogonalEdgeStyle;rounded=0;orthogonalLoop=1;jettySize=auto;html=1;exitX=1;exitY=0.5;exitDx=0;exitDy=0;entryX=0;entryY=0.5;entryDx=0;entryDy=0;fontColor=#B3B3B3;" parent="1" source="zPzuGnTjDfx3dbXrWhTj-61" target="zPzuGnTjDfx3dbXrWhTj-63" edge="1">
          <mxGeometry relative="1" as="geometry" />
        </mxCell>
        <mxCell id="zPzuGnTjDfx3dbXrWhTj-91" style="edgeStyle=orthogonalEdgeStyle;rounded=0;orthogonalLoop=1;jettySize=auto;html=1;exitX=1;exitY=0.5;exitDx=0;exitDy=0;entryX=0;entryY=0.5;entryDx=0;entryDy=0;fontColor=#B3B3B3;curved=1;" parent="1" source="zPzuGnTjDfx3dbXrWhTj-61" target="zPzuGnTjDfx3dbXrWhTj-75" edge="1">
          <mxGeometry relative="1" as="geometry" />
        </mxCell>
        <mxCell id="zPzuGnTjDfx3dbXrWhTj-61" value="Information overload" style="rounded=1;whiteSpace=wrap;html=1;fillColor=#dae8fc;strokeColor=#6c8ebf;" parent="1" vertex="1">
          <mxGeometry x="629.99" y="-332" width="120" height="60" as="geometry" />
        </mxCell>
        <mxCell id="zPzuGnTjDfx3dbXrWhTj-88" style="edgeStyle=orthogonalEdgeStyle;rounded=0;orthogonalLoop=1;jettySize=auto;html=1;exitX=1;exitY=0.5;exitDx=0;exitDy=0;entryX=0;entryY=0.5;entryDx=0;entryDy=0;fontColor=#B3B3B3;" parent="1" source="zPzuGnTjDfx3dbXrWhTj-62" target="zPzuGnTjDfx3dbXrWhTj-75" edge="1">
          <mxGeometry relative="1" as="geometry" />
        </mxCell>
        <mxCell id="zPzuGnTjDfx3dbXrWhTj-90" style="edgeStyle=orthogonalEdgeStyle;rounded=0;orthogonalLoop=1;jettySize=auto;html=1;exitX=1;exitY=0.5;exitDx=0;exitDy=0;entryX=0;entryY=0.5;entryDx=0;entryDy=0;fontColor=#B3B3B3;curved=1;" parent="1" source="zPzuGnTjDfx3dbXrWhTj-62" target="zPzuGnTjDfx3dbXrWhTj-63" edge="1">
          <mxGeometry relative="1" as="geometry" />
        </mxCell>
        <mxCell id="zPzuGnTjDfx3dbXrWhTj-62" value="Low agency as a result of lack of choices" style="rounded=1;whiteSpace=wrap;html=1;fillColor=#f8cecc;strokeColor=#b85450;" parent="1" vertex="1">
          <mxGeometry x="629.99" y="-415" width="120" height="60" as="geometry" />
        </mxCell>
        <mxCell id="zPzuGnTjDfx3dbXrWhTj-63" value="&lt;b&gt;&lt;font color=&quot;#ff6666&quot;&gt;Check NO&lt;/font&gt;&lt;/b&gt; for &quot;useful for learning?&quot; question" style="rounded=1;whiteSpace=wrap;html=1;dashed=1;strokeWidth=2;strokeColor=#6666FF;" parent="1" vertex="1">
          <mxGeometry x="819.99" y="-332" width="120" height="60" as="geometry" />
        </mxCell>
        <mxCell id="zPzuGnTjDfx3dbXrWhTj-106" style="edgeStyle=orthogonalEdgeStyle;curved=1;rounded=0;orthogonalLoop=1;jettySize=auto;html=1;exitX=1;exitY=0.5;exitDx=0;exitDy=0;entryX=0;entryY=0.5;entryDx=0;entryDy=0;fontColor=#B3B3B3;" parent="1" source="zPzuGnTjDfx3dbXrWhTj-68" target="zPzuGnTjDfx3dbXrWhTj-72" edge="1">
          <mxGeometry relative="1" as="geometry" />
        </mxCell>
        <mxCell id="zPzuGnTjDfx3dbXrWhTj-68" value="&lt;font color=&quot;#67ab9f&quot;&gt;&lt;b&gt;Increased&lt;/b&gt;&amp;nbsp;&lt;b&gt;child&amp;nbsp;&lt;br&gt;completion&lt;/b&gt;&lt;/font&gt;&amp;nbsp;of recommended modules" style="rounded=1;whiteSpace=wrap;html=1;dashed=1;strokeWidth=2;strokeColor=#6666FF;" parent="1" vertex="1">
          <mxGeometry x="816.99" y="-250" width="120" height="60" as="geometry" />
        </mxCell>
        <mxCell id="zPzuGnTjDfx3dbXrWhTj-72" value="&lt;font color=&quot;#67ab9f&quot;&gt;&lt;b&gt;Increased child achievement&lt;/b&gt;&lt;/font&gt;" style="rounded=1;whiteSpace=wrap;html=1;dashed=1;strokeWidth=2;strokeColor=#6666FF;" parent="1" vertex="1">
          <mxGeometry x="1009.99" y="-332" width="120" height="60" as="geometry" />
        </mxCell>
        <mxCell id="zPzuGnTjDfx3dbXrWhTj-104" style="edgeStyle=orthogonalEdgeStyle;curved=1;rounded=0;orthogonalLoop=1;jettySize=auto;html=1;exitX=1;exitY=0.5;exitDx=0;exitDy=0;entryX=0;entryY=0.5;entryDx=0;entryDy=0;fontColor=#B3B3B3;" parent="1" source="zPzuGnTjDfx3dbXrWhTj-73" target="zPzuGnTjDfx3dbXrWhTj-68" edge="1">
          <mxGeometry relative="1" as="geometry" />
        </mxCell>
        <mxCell id="zPzuGnTjDfx3dbXrWhTj-73" value="Tendency to honor commitment" style="rounded=1;whiteSpace=wrap;html=1;fillColor=#d5e8d4;strokeColor=#82b366;" parent="1" vertex="1">
          <mxGeometry x="629.99" y="-250" width="120" height="60" as="geometry" />
        </mxCell>
        <mxCell id="zPzuGnTjDfx3dbXrWhTj-100" style="edgeStyle=orthogonalEdgeStyle;curved=1;rounded=0;orthogonalLoop=1;jettySize=auto;html=1;exitX=1;exitY=0.5;exitDx=0;exitDy=0;entryX=0;entryY=0.5;entryDx=0;entryDy=0;fontColor=#B3B3B3;" parent="1" source="zPzuGnTjDfx3dbXrWhTj-50" target="zPzuGnTjDfx3dbXrWhTj-74" edge="1">
          <mxGeometry relative="1" as="geometry" />
        </mxCell>
        <mxCell id="zPzuGnTjDfx3dbXrWhTj-50" value="Dispels doubt that the recommendations are generic" style="rounded=1;whiteSpace=wrap;html=1;" parent="1" vertex="1">
          <mxGeometry x="469.99" y="-167" width="120" height="60" as="geometry" />
        </mxCell>
        <mxCell id="zPzuGnTjDfx3dbXrWhTj-102" style="edgeStyle=orthogonalEdgeStyle;curved=1;rounded=0;orthogonalLoop=1;jettySize=auto;html=1;exitX=1;exitY=0.5;exitDx=0;exitDy=0;entryX=0;entryY=0.5;entryDx=0;entryDy=0;fontColor=#B3B3B3;" parent="1" source="zPzuGnTjDfx3dbXrWhTj-74" target="zPzuGnTjDfx3dbXrWhTj-68" edge="1">
          <mxGeometry relative="1" as="geometry" />
        </mxCell>
        <mxCell id="zPzuGnTjDfx3dbXrWhTj-103" style="edgeStyle=orthogonalEdgeStyle;curved=1;rounded=0;orthogonalLoop=1;jettySize=auto;html=1;exitX=1;exitY=0.5;exitDx=0;exitDy=0;entryX=0;entryY=0.5;entryDx=0;entryDy=0;fontColor=#B3B3B3;" parent="1" source="zPzuGnTjDfx3dbXrWhTj-74" target="zPzuGnTjDfx3dbXrWhTj-58" edge="1">
          <mxGeometry relative="1" as="geometry" />
        </mxCell>
        <mxCell id="zPzuGnTjDfx3dbXrWhTj-74" value="&lt;span&gt;Increased trust in recommendation system&lt;/span&gt;" style="rounded=1;whiteSpace=wrap;html=1;strokeColor=#9673a6;strokeWidth=1;fillColor=#e1d5e7;" parent="1" vertex="1">
          <mxGeometry x="629.99" y="-130" width="120" height="60" as="geometry" />
        </mxCell>
        <mxCell id="zPzuGnTjDfx3dbXrWhTj-75" value="&lt;font color=&quot;#ff6666&quot;&gt;&lt;b&gt;Decreased&lt;/b&gt;&amp;nbsp;&lt;br&gt;&lt;b&gt;child completion&lt;/b&gt;&lt;/font&gt; of recommended modules" style="rounded=1;whiteSpace=wrap;html=1;dashed=1;strokeWidth=2;strokeColor=#6666FF;" parent="1" vertex="1">
          <mxGeometry x="819.99" y="-415" width="120" height="60" as="geometry" />
        </mxCell>
        <mxCell id="zPzuGnTjDfx3dbXrWhTj-80" value="Behavioral hypothesis" style="text;html=1;strokeColor=none;fillColor=none;align=center;verticalAlign=middle;whiteSpace=wrap;rounded=0;fontColor=#B3B3B3;" parent="1" vertex="1">
          <mxGeometry x="669.99" y="-748" width="40" height="20" as="geometry" />
        </mxCell>
        <mxCell id="zPzuGnTjDfx3dbXrWhTj-81" value="Parental action" style="text;html=1;strokeColor=none;fillColor=none;align=center;verticalAlign=middle;whiteSpace=wrap;rounded=0;fontColor=#B3B3B3;" parent="1" vertex="1">
          <mxGeometry x="509.99" y="-748" width="40" height="20" as="geometry" />
        </mxCell>
        <mxCell id="zPzuGnTjDfx3dbXrWhTj-83" value="Immediate outcomes" style="text;html=1;strokeColor=none;fillColor=none;align=center;verticalAlign=middle;whiteSpace=wrap;rounded=0;fontColor=#B3B3B3;" parent="1" vertex="1">
          <mxGeometry x="860" y="-748" width="40" height="20" as="geometry" />
        </mxCell>
        <mxCell id="zPzuGnTjDfx3dbXrWhTj-84" value="Longer term outcome" style="text;html=1;strokeColor=none;fillColor=none;align=center;verticalAlign=middle;whiteSpace=wrap;rounded=0;fontColor=#B3B3B3;" parent="1" vertex="1">
          <mxGeometry x="1050" y="-748" width="40" height="20" as="geometry" />
        </mxCell>
        <mxCell id="zPzuGnTjDfx3dbXrWhTj-86" value="&lt;font color=&quot;#67ab9f&quot;&gt;&lt;b&gt;Increased parental&amp;nbsp;&lt;/b&gt;&lt;/font&gt;&lt;b style=&quot;color: rgb(103 , 171 , 159)&quot;&gt;App&amp;nbsp;&lt;/b&gt;&lt;font color=&quot;#67ab9f&quot;&gt;&lt;b&gt;&lt;br&gt;usage&lt;/b&gt;&lt;/font&gt;" style="rounded=1;whiteSpace=wrap;html=1;dashed=1;strokeWidth=2;strokeColor=#6666FF;" parent="1" vertex="1">
          <mxGeometry x="1009.99" y="-250" width="120" height="60" as="geometry" />
        </mxCell>
        <mxCell id="gZO8hJtCAbijcIRm5ubo-1" value="Experimental variation" style="text;html=1;strokeColor=none;fillColor=none;align=center;verticalAlign=middle;whiteSpace=wrap;rounded=0;fontColor=#B3B3B3;" vertex="1" parent="1">
          <mxGeometry x="315.01" y="-748" width="40" height="20" as="geometry" />
        </mxCell>
        <mxCell id="gZO8hJtCAbijcIRm5ubo-2" value="Push sub-experiment" style="rounded=0;whiteSpace=wrap;html=1;strokeWidth=1;verticalAlign=top;fillColor=#ffe6cc;strokeColor=#d79b00;" vertex="1" parent="1">
          <mxGeometry x="230" y="-704" width="190" height="120" as="geometry" />
        </mxCell>
        <mxCell id="gZO8hJtCAbijcIRm5ubo-8" style="edgeStyle=orthogonalEdgeStyle;rounded=0;orthogonalLoop=1;jettySize=auto;html=1;exitX=1;exitY=0.5;exitDx=0;exitDy=0;entryX=0;entryY=0.5;entryDx=0;entryDy=0;" edge="1" parent="1" source="gZO8hJtCAbijcIRm5ubo-4" target="gZO8hJtCAbijcIRm5ubo-5">
          <mxGeometry relative="1" as="geometry" />
        </mxCell>
        <mxCell id="gZO8hJtCAbijcIRm5ubo-4" value="Customized push messages informed by behavioral hypotheses" style="rounded=1;whiteSpace=wrap;html=1;fillColor=#f5f5f5;strokeWidth=1;strokeColor=#666666;fontColor=#333333;" vertex="1" parent="1">
          <mxGeometry x="260.0049999999999" y="-674" width="130" height="70" as="geometry" />
        </mxCell>
        <mxCell id="gZO8hJtCAbijcIRm5ubo-9" style="edgeStyle=orthogonalEdgeStyle;rounded=0;orthogonalLoop=1;jettySize=auto;html=1;exitX=1;exitY=0.5;exitDx=0;exitDy=0;entryX=0;entryY=0.5;entryDx=0;entryDy=0;" edge="1" parent="1" source="gZO8hJtCAbijcIRm5ubo-5" target="gZO8hJtCAbijcIRm5ubo-7">
          <mxGeometry relative="1" as="geometry" />
        </mxCell>
        <mxCell id="gZO8hJtCAbijcIRm5ubo-5" value="Opens link (to student performance report)" style="rounded=1;whiteSpace=wrap;html=1;dashed=1;strokeWidth=2;strokeColor=#6666FF;fillColor=none;" vertex="1" parent="1">
          <mxGeometry x="469.99" y="-669" width="120" height="60" as="geometry" />
        </mxCell>
        <mxCell id="gZO8hJtCAbijcIRm5ubo-11" style="edgeStyle=orthogonalEdgeStyle;rounded=0;orthogonalLoop=1;jettySize=auto;html=1;exitX=1;exitY=0.5;exitDx=0;exitDy=0;entryX=0;entryY=0.5;entryDx=0;entryDy=0;" edge="1" parent="1" source="gZO8hJtCAbijcIRm5ubo-7" target="gZO8hJtCAbijcIRm5ubo-10">
          <mxGeometry relative="1" as="geometry" />
        </mxCell>
        <mxCell id="gZO8hJtCAbijcIRm5ubo-7" value="&lt;span&gt;Multiple (e.g. relative information, framing as changes, peer behavior)&lt;/span&gt;" style="rounded=1;whiteSpace=wrap;html=1;strokeColor=#9673a6;strokeWidth=1;fillColor=#e1d5e7;" vertex="1" parent="1">
          <mxGeometry x="629.99" y="-669" width="120" height="60" as="geometry" />
        </mxCell>
        <mxCell id="gZO8hJtCAbijcIRm5ubo-10" value="&lt;b&gt;&lt;font color=&quot;#67ab9f&quot;&gt;Increased link opens&lt;/font&gt;&lt;/b&gt; and more engaging browsing patterns" style="rounded=1;whiteSpace=wrap;html=1;dashed=1;strokeWidth=2;strokeColor=#6666FF;fillColor=none;" vertex="1" parent="1">
          <mxGeometry x="820" y="-669" width="120" height="60" as="geometry" />
        </mxCell>
        <mxCell id="gZO8hJtCAbijcIRm5ubo-13" value="LPE vs. generic sub-experiment" style="rounded=0;whiteSpace=wrap;html=1;strokeWidth=1;verticalAlign=top;fillColor=#ffe6cc;strokeColor=#d79b00;" vertex="1" parent="1">
          <mxGeometry x="230" y="-577" width="190" height="120" as="geometry" />
        </mxCell>
        <mxCell id="gZO8hJtCAbijcIRm5ubo-14" style="edgeStyle=orthogonalEdgeStyle;rounded=0;orthogonalLoop=1;jettySize=auto;html=1;exitX=1;exitY=0.5;exitDx=0;exitDy=0;entryX=0;entryY=0.5;entryDx=0;entryDy=0;" edge="1" parent="1" source="gZO8hJtCAbijcIRm5ubo-15" target="gZO8hJtCAbijcIRm5ubo-17">
          <mxGeometry relative="1" as="geometry" />
        </mxCell>
        <mxCell id="gZO8hJtCAbijcIRm5ubo-15" value="Prompting parents to use LPE page vs. generic exercise page" style="rounded=1;whiteSpace=wrap;html=1;fillColor=#f5f5f5;strokeWidth=1;strokeColor=#666666;fontColor=#333333;" vertex="1" parent="1">
          <mxGeometry x="260.0049999999999" y="-547" width="130" height="70" as="geometry" />
        </mxCell>
        <mxCell id="gZO8hJtCAbijcIRm5ubo-16" style="edgeStyle=orthogonalEdgeStyle;rounded=0;orthogonalLoop=1;jettySize=auto;html=1;exitX=1;exitY=0.5;exitDx=0;exitDy=0;entryX=0;entryY=0.5;entryDx=0;entryDy=0;" edge="1" parent="1" source="gZO8hJtCAbijcIRm5ubo-17" target="gZO8hJtCAbijcIRm5ubo-19">
          <mxGeometry relative="1" as="geometry" />
        </mxCell>
        <mxCell id="gZO8hJtCAbijcIRm5ubo-17" value="Views page and decides whether to give exercises her child" style="rounded=1;whiteSpace=wrap;html=1;dashed=1;strokeWidth=2;strokeColor=#6666FF;fillColor=none;" vertex="1" parent="1">
          <mxGeometry x="469.99" y="-542" width="120" height="60" as="geometry" />
        </mxCell>
        <mxCell id="gZO8hJtCAbijcIRm5ubo-18" style="edgeStyle=orthogonalEdgeStyle;rounded=0;orthogonalLoop=1;jettySize=auto;html=1;exitX=1;exitY=0.5;exitDx=0;exitDy=0;entryX=0;entryY=0.5;entryDx=0;entryDy=0;" edge="1" parent="1" source="gZO8hJtCAbijcIRm5ubo-19" target="gZO8hJtCAbijcIRm5ubo-20">
          <mxGeometry relative="1" as="geometry" />
        </mxCell>
        <mxCell id="gZO8hJtCAbijcIRm5ubo-22" style="edgeStyle=orthogonalEdgeStyle;rounded=0;orthogonalLoop=1;jettySize=auto;html=1;exitX=1;exitY=0.5;exitDx=0;exitDy=0;entryX=0;entryY=0.5;entryDx=0;entryDy=0;curved=1;" edge="1" parent="1" source="gZO8hJtCAbijcIRm5ubo-19" target="zPzuGnTjDfx3dbXrWhTj-68">
          <mxGeometry relative="1" as="geometry" />
        </mxCell>
        <mxCell id="gZO8hJtCAbijcIRm5ubo-19" value="&lt;span&gt;High quality targeted exercises are superior to generic exercises&amp;nbsp;&amp;nbsp;&lt;/span&gt;" style="rounded=1;whiteSpace=wrap;html=1;strokeColor=#9673a6;strokeWidth=1;fillColor=#e1d5e7;" vertex="1" parent="1">
          <mxGeometry x="629.99" y="-542" width="120" height="60" as="geometry" />
        </mxCell>
        <mxCell id="gZO8hJtCAbijcIRm5ubo-20" value="&lt;b&gt;&lt;font color=&quot;#67ab9f&quot;&gt;Increased parent usage of page&amp;nbsp;&lt;/font&gt;&lt;/b&gt;" style="rounded=1;whiteSpace=wrap;html=1;dashed=1;strokeWidth=2;strokeColor=#6666FF;fillColor=none;" vertex="1" parent="1">
          <mxGeometry x="820" y="-542" width="120" height="60" as="geometry" />
        </mxCell>
      </root>
    </mxGraphModel>
  </diagram>
</mxfile>
